<svg width="88" height="93" viewBox="0 0 88 93" fill="none" xmlns="http://www.w3.org/2000/svg">
<path d="M23.1492 26.8668C25.4028 24.2124 28.1496 21.9888 31.2504 20.346V2.73721C22.6452 5.36401 15.1668 10.5744 9.71759 17.4624L23.1492 26.8668Z" fill="#02DFB9"/>
<path d="M35.8176 41.9712V70.7136C24.7128 67.2144 16.638 56.8188 16.638 44.574C16.638 39.6576 17.94 35.04 20.2164 31.0476L6.78839 21.6456C2.67479 28.3128 0.299988 36.1656 0.299988 44.5752C0.299988 65.9208 15.5916 83.6916 35.8176 87.5388V92.1708H52.2576V53.4828L35.8176 41.9712Z" fill="#10618D"/>
<path d="M44.0376 0.835205C41.2272 0.835205 38.4804 1.104 35.8176 1.6104V35.7372L52.2576 47.2488V18.4332C63.3624 21.9324 71.4372 32.3268 71.4372 44.5728C71.4372 55.0656 65.5068 64.1988 56.8236 68.8008V86.4072C74.7408 80.9388 87.7752 64.2792 87.7752 44.5728C87.7752 20.418 68.1936 0.835205 44.0376 0.835205Z" fill="#10618D"/>
</svg>
