<svg width="33" height="32" viewBox="0 0 33 32" fill="none" xmlns="http://www.w3.org/2000/svg">
<g clip-path="url(#clip0_6_917)">
<path d="M0.5 15.36C0.5 8.1192 0.5 4.49884 2.74942 2.24942C4.99884 0 8.6192 0 15.86 0H17.14C24.3808 0 28.0011 0 30.2506 2.24942C32.5 4.49884 32.5 8.1192 32.5 15.36V16.64C32.5 23.8808 32.5 27.5011 30.2506 29.7506C28.0011 32 24.3808 32 17.14 32H15.86C8.6192 32 4.99884 32 2.74942 29.7506C0.5 27.5011 0.5 23.8808 0.5 16.64V15.36Z" fill="white" fill-opacity="0.3"/>
<path d="M17.5267 23.0534C10.2334 23.0534 6.07348 18.0534 5.90015 9.7334H9.55348C9.67348 15.8401 12.3667 18.4267 14.5001 18.9601V9.7334H17.9402V15.0001C20.0469 14.7734 22.2599 12.3734 23.0066 9.7334H26.4467C25.8734 12.9867 23.4734 15.3867 21.7667 16.3734C23.4734 17.1734 26.2068 19.2667 27.2468 23.0534H23.46C22.6467 20.5201 20.6202 18.5601 17.9402 18.2934V23.0534H17.5267Z" fill="white"/>
</g>
<defs>
<clipPath id="clip0_6_917">
<rect x="0.5" width="32" height="32" fill="white"/>
</clipPath>
</defs>
</svg>
