<svg width="34" height="32" viewBox="0 0 34 32" fill="none" xmlns="http://www.w3.org/2000/svg">
<path d="M0.5 15.36C0.5 8.1192 0.5 4.49884 2.74942 2.24942C4.99884 0 8.6192 0 15.86 0H17.14C24.3808 0 28.0011 0 30.2506 2.24942C32.5 4.49884 32.5 8.1192 32.5 15.36V16.64C32.5 23.8808 32.5 27.5011 30.2506 29.7506C28.0011 32 24.3808 32 17.14 32H15.86C8.6192 32 4.99884 32 2.74942 29.7506C0.5 27.5011 0.5 23.8808 0.5 16.64V15.36Z" fill="white" fill-opacity="0.3"/>
<path fill-rule="evenodd" clip-rule="evenodd" d="M24.9576 9.31361C25.8552 9.54725 26.5619 10.2357 26.8018 11.1098L26.8017 11.1099C27.2377 12.6943 27.2377 16.0002 27.2377 16.0002C27.2377 16.0002 27.2377 19.306 26.8017 20.8906C26.5618 21.7647 25.8551 22.4531 24.9575 22.6869C23.3309 23.1113 16.8079 23.1113 16.8079 23.1113C16.8079 23.1113 10.2851 23.1113 8.65842 22.6869C7.76091 22.453 7.05397 21.7647 6.81424 20.8905C6.37842 19.3059 6.37842 16.0002 6.37842 16.0002C6.37842 16.0002 6.37842 12.6943 6.81424 11.1098C7.05397 10.2357 7.76091 9.54725 8.65851 9.31361C10.2852 8.88901 16.808 8.88901 16.808 8.88901C16.808 8.88901 23.331 8.88901 24.9576 9.31361ZM20.1266 16.0003L14.6748 19.0016V12.9986L20.1266 16.0003Z" fill="white"/>
</svg>
