<svg width="363" height="396" viewBox="0 0 363 396" fill="none" xmlns="http://www.w3.org/2000/svg">
<path d="M132.411 182.593C132.411 182.593 131.74 200.24 130.964 221.203C130.083 244.809 129.056 272.592 128.615 284.049C127.777 305.662 105.34 309.817 99.5322 284.867C99.5322 306.501 80.8914 317.308 73.4057 289.861C71.7492 313.153 48.4744 313.971 46.0001 289.043C42.6661 304.004 17.7347 322.302 6.93604 267.409C-3.86267 212.536 -6.35791 156.825 31.8673 155.985H52.647L65.9409 144.339L73.4056 155.985L99.1758 157.643V181.774L132.411 182.593Z" fill="#F9EEEB"/>
<path d="M130.964 221.203C130.083 244.809 129.056 272.592 128.615 284.049C127.777 305.662 105.34 309.817 99.5322 284.867C99.5322 306.501 80.8914 317.308 73.4057 289.861C71.7492 313.153 48.4744 313.971 46.0001 289.043C42.6661 304.004 17.7347 322.302 6.93604 267.409C-3.86267 212.536 -6.35791 156.825 31.8673 155.985H38.4724C38.1578 175.29 27.7156 192.371 27.7156 192.371C53.8841 194.868 52.0179 211.697 55.7503 221.685C59.4827 231.652 72.4831 233.709 74.4541 217.929C75.5444 209.095 120.689 218.873 130.964 221.203Z" fill="#10618D"/>
<path d="M363 381.329L316.869 380.091L303.198 337.242L278.246 259.099L255.076 347.398L245.829 382.588L204.71 383.826L225.888 367.626C225.888 367.626 223.602 356.757 221.946 339.865C220.1 320.938 219.094 294.456 223.057 267.283C224.668 255.82 227.286 244.522 230.878 233.52C230.878 233.52 201.292 232.911 185.104 234.149C185.104 234.149 179.548 259.791 149.856 249.111C149.856 249.111 149.374 256.245 148.64 267.178C147.047 290.428 144.237 330.8 142.203 355.981C138.911 396.836 133.648 408.775 130.754 369.893C130.754 411.063 121.612 397.759 120.396 369.704C120.647 404.621 109.345 401.599 112.47 356.4C113.434 342.425 113.896 307.529 114.001 265.478C114.126 226.847 113.938 182.152 113.539 142.052C113.015 89.6977 112.155 45.1494 111.212 32.0766C109.22 4.71377 115.028 -14.0875 122.514 28.3204C121.256 -10.3315 130.23 -8.44299 135.032 28.0266C135.221 -7.51971 142.077 -5.65216 144.866 35.8326C147.382 73.0786 147.634 76.436 148.389 141.108C148.452 147.403 148.535 154.264 148.619 161.798H244.592C246.919 161.798 249.205 161.861 251.427 162.007C333.267 167.316 342.849 268.227 336.37 333.654C335.41 343.801 333.898 353.888 331.841 363.87L363 381.329Z" fill="#F9EEEB"/>
<path d="M237.693 161.798H148.619C148.535 154.265 148.451 147.403 148.388 141.108L113.539 142.052C113.937 182.152 114.126 226.847 114 265.478L148.64 267.178C149.374 256.245 149.856 249.111 149.856 249.111C179.547 259.791 185.104 234.149 185.104 234.149C201.292 232.911 230.878 233.52 230.878 233.52L237.693 161.798Z" fill="#02DFB9"/>
<path d="M336.37 333.654L303.198 337.242L278.246 259.099L255.076 347.398L221.946 339.865C220.101 320.938 219.094 294.456 223.057 267.283C224.669 255.82 227.286 244.522 230.878 233.52L237.693 161.798H244.592C246.919 161.798 249.205 161.861 251.427 162.007C333.267 167.316 342.849 268.227 336.37 333.654Z" fill="#10618D"/>
<path d="M107.101 181.963H114.958C127.007 181.963 137.393 217.89 112.465 217.89C81.7202 217.89 67.5156 212.532 67.5156 212.532L85.044 180.933L107.101 181.963Z" fill="#F9EEEB"/>
<path d="M83.2813 185.202C83.0087 185.201 82.7469 185.095 82.5515 184.905C82.3561 184.714 82.2424 184.455 82.2345 184.183C82.2267 183.91 82.3253 183.645 82.5094 183.444C82.6936 183.243 82.9488 183.121 83.2209 183.105C84.6403 183.097 86.0321 182.713 87.2554 181.992C88.4786 181.272 89.4897 180.24 90.1862 179.003C90.6444 178.144 90.8661 177.178 90.8287 176.205C90.7913 175.232 90.496 174.287 89.9732 173.466C88.4774 171.195 85.3444 170.089 81.1057 170.326C80.9679 170.336 80.8295 170.318 80.6988 170.274C80.568 170.229 80.4474 170.159 80.3442 170.067C80.241 169.975 80.1571 169.864 80.0977 169.739C80.0382 169.614 80.0042 169.479 79.9979 169.341C79.9817 169.063 80.0764 168.79 80.2611 168.583C80.4457 168.375 80.7053 168.249 80.9828 168.232C87.7443 167.827 90.6101 170.617 91.725 172.312C92.4525 173.44 92.867 174.741 92.9258 176.082C92.9846 177.423 92.6857 178.756 92.0598 179.943C91.2009 181.512 89.9418 182.825 88.4107 183.749C86.8796 184.672 85.1312 185.173 83.3438 185.199C83.3233 185.202 83.3018 185.202 83.2813 185.202Z" fill="#10618D"/>
<path d="M51.7381 196.146C51.6603 196.146 51.5825 196.144 51.5046 196.144C51.2266 196.143 50.9606 196.03 50.7651 195.833C50.5696 195.635 50.4607 195.367 50.4624 195.089C50.464 194.811 50.576 194.544 50.7738 194.349C50.9716 194.153 51.2389 194.044 51.5169 194.046C51.5906 194.042 51.6664 194.048 51.7412 194.048C55.5724 194.048 58.4555 192.816 59.6698 190.652C60.0852 189.897 60.2835 189.041 60.2428 188.179C60.2022 187.318 59.9241 186.484 59.4395 185.771C57.7644 183.089 54.0058 181.64 49.3791 181.925C49.2417 181.933 49.1041 181.914 48.974 181.869C48.844 181.824 48.7241 181.753 48.6212 181.662C48.5184 181.57 48.4345 181.459 48.3745 181.335C48.3145 181.211 48.2794 181.077 48.2713 180.939C48.2633 180.802 48.2823 180.664 48.3275 180.534C48.3726 180.404 48.4429 180.284 48.5344 180.181C48.6258 180.078 48.7367 179.994 48.8605 179.934C48.9844 179.874 49.1189 179.839 49.2563 179.831C54.6612 179.511 59.1303 181.318 61.2179 184.658C61.8989 185.693 62.2849 186.893 62.3342 188.131C62.3835 189.368 62.0941 190.596 61.4974 191.681C59.9012 194.525 56.3515 196.146 51.7381 196.146Z" fill="#10618D"/>
<path d="M50.559 174.913C50.2903 174.912 50.0319 174.809 49.8372 174.624C49.6425 174.439 49.5263 174.186 49.5127 173.917C49.499 173.649 49.5889 173.385 49.7638 173.181C49.9387 172.977 50.1852 172.848 50.4525 172.82C54.3862 172.415 57.3286 170.712 58.3238 168.263C58.6042 167.635 58.703 166.941 58.6089 166.259C58.5147 165.578 58.2315 164.937 57.7914 164.408C56.2065 162.507 52.8903 161.923 48.7007 162.804C48.566 162.832 48.427 162.834 48.2917 162.808C48.1565 162.783 48.0275 162.731 47.9123 162.655C47.7971 162.58 47.6978 162.483 47.6202 162.369C47.5425 162.255 47.488 162.127 47.4598 161.992C47.4316 161.858 47.4301 161.718 47.4556 161.583C47.4811 161.448 47.5329 161.319 47.6082 161.203C47.6835 161.088 47.7808 160.989 47.8945 160.911C48.0081 160.833 48.136 160.779 48.2707 160.751C53.2455 159.71 57.3041 160.548 59.4009 163.062C60.0831 163.884 60.525 164.878 60.6776 165.936C60.8303 166.993 60.6879 168.072 60.2661 169.054C58.974 172.232 55.3854 174.421 50.6675 174.906C50.6315 174.91 50.5952 174.912 50.559 174.913Z" fill="#10618D"/>
</svg>
