<svg width="85" height="58" viewBox="0 0 85 58" fill="none" xmlns="http://www.w3.org/2000/svg">
<path d="M1.60913 13.9244V3.12918H5.52593C6.72833 3.12918 7.69793 3.42438 8.43233 4.01598C9.16673 4.60758 9.53513 5.42238 9.53513 6.46038C9.53513 7.54998 9.13192 8.39598 8.32432 8.99718C7.51672 9.59838 6.51712 9.89958 5.32432 9.89958H2.40954V13.9244H1.60913ZM2.41074 9.15918H5.37113C6.37913 9.15918 7.19033 8.91558 7.80833 8.42718C8.42513 7.93878 8.73353 7.28838 8.73353 6.47598C8.73353 5.64318 8.43833 5.00118 7.84673 4.54878C7.25513 4.09638 6.46073 3.87078 5.46353 3.87078H2.40954V9.15918H2.41074Z" fill="#10618D"/>
<path d="M12.8208 14.1092C12.204 14.1092 11.628 13.9856 11.094 13.7384L11.4024 13.0448C11.8236 13.25 12.2964 13.3532 12.8208 13.3532C13.818 13.3532 14.6304 12.7268 15.258 11.4716L10.3848 3.12918H11.3256L15.6588 10.64L19.3596 3.12918H20.2392L15.9516 11.7344C15.1596 13.3172 14.1156 14.1092 12.8208 14.1092Z" fill="#10618D"/>
<path d="M26.2835 14.1092C24.7511 14.1092 23.4743 13.5716 22.4519 12.4976C21.4283 11.4236 20.9171 10.1 20.9171 8.5268C20.9171 6.9848 21.4307 5.6684 22.4591 4.5788C23.4863 3.4892 24.7727 2.9444 26.3147 2.9444C27.1991 2.9444 27.9515 3.0932 28.5743 3.392C29.1959 3.6908 29.8259 4.1324 30.4631 4.718L29.9387 5.258C28.8491 4.1996 27.6359 3.6692 26.2991 3.6692C25.0043 3.6692 23.9219 4.1348 23.0531 5.0648C22.1843 5.996 21.7499 7.1492 21.7499 8.5268C21.7499 9.8948 22.1891 11.0456 23.0687 11.9816C23.9483 12.9176 25.0295 13.3844 26.3147 13.3844C27.0647 13.3844 27.7283 13.2452 28.3043 12.968C28.8803 12.6908 29.4551 12.2684 30.0311 11.7032L30.5711 12.2276C29.9435 12.8444 29.2967 13.3124 28.6283 13.6304C27.9587 13.9496 27.1775 14.1092 26.2835 14.1092Z" fill="#10618D"/>
<path d="M37.0043 14.1092C35.4719 14.1092 34.1951 13.5716 33.1727 12.4976C32.1491 11.4236 31.6379 10.1 31.6379 8.5268C31.6379 6.9848 32.1515 5.6684 33.1799 4.5788C34.2083 3.4892 35.4935 2.9444 37.0355 2.9444C37.9199 2.9444 38.6723 3.0932 39.2951 3.392C39.9167 3.6908 40.5467 4.1324 41.1839 4.718L40.6595 5.258C39.5699 4.1996 38.3567 3.6692 37.0199 3.6692C35.7251 3.6692 34.6427 4.1348 33.7739 5.0648C32.9051 5.996 32.4707 7.1492 32.4707 8.5268C32.4707 9.8948 32.9099 11.0456 33.7895 11.9816C34.6691 12.9176 35.7503 13.3844 37.0355 13.3844C37.7855 13.3844 38.4491 13.2452 39.0251 12.968C39.6011 12.6908 40.1759 12.2684 40.7519 11.7032L41.2919 12.2276C40.6643 12.8444 40.0175 13.3124 39.3491 13.6304C38.6795 13.9496 37.8983 14.1092 37.0043 14.1092Z" fill="#10618D"/>
<path d="M43.1495 13.9244V3.12918H43.9511V10.2224L50.8295 3.12918H51.9239L47.2043 7.89438L52.1231 13.9244H51.0743L46.6331 8.46558L43.9499 11.18V13.9244H43.1495Z" fill="#10618D"/>
<path d="M53.9135 13.9244V3.12918H54.7151V12.7676L61.7315 3.12918H62.5175V13.9244H61.7159V4.28598L54.7151 13.9244H53.9135Z" fill="#10618D"/>
<path d="M65.3171 13.9244V3.12919H66.1187V12.7676L73.1352 3.12919H73.9211V13.9244H73.1196V4.28599L66.1187 13.9244H65.3171ZM71.0088 1.73359C70.6284 2.06839 70.1711 2.23519 69.6359 2.23519C69.1007 2.23519 68.6435 2.06839 68.2631 1.73359C67.8827 1.39999 67.6463 0.975188 67.5539 0.461588L68.1863 0.322388C68.3819 1.07359 68.8643 1.44799 69.6359 1.44799C70.4075 1.44799 70.8899 1.07239 71.0855 0.322388L71.7179 0.461588C71.6255 0.975188 71.388 1.39879 71.0088 1.73359Z" fill="#10618D"/>
<path d="M1.60913 35.4104V24.6152H2.41074V34.2536L9.42714 24.6152H10.2131V35.4104H9.41154V25.772L2.41074 35.4104H1.60913V35.4104Z" fill="#10618D"/>
<path d="M13.0128 35.4104V24.6152H13.8143V29.612H20.7227V24.6152H21.5243V35.4104H20.7227V30.3524H13.8143V35.4104H13.0128Z" fill="#10618D"/>
<path d="M29.1287 35.5952C27.5963 35.5952 26.3195 35.0576 25.2971 33.9836C24.2735 32.9096 23.7623 31.586 23.7623 30.0128C23.7623 28.4708 24.2759 27.1544 25.3043 26.0648C26.3327 24.9752 27.6179 24.4304 29.1599 24.4304C30.0443 24.4304 30.7967 24.5792 31.4195 24.878C32.0411 25.1768 32.6711 25.6184 33.3083 26.204L32.7839 26.744C31.6943 25.6856 30.4811 25.1552 29.1443 25.1552C27.8495 25.1552 26.7671 25.6208 25.8983 26.5508C25.0295 27.482 24.5951 28.6352 24.5951 30.0128C24.5951 31.3808 25.0343 32.5316 25.9139 33.4676C26.7935 34.4036 27.8747 34.8704 29.1599 34.8704C29.9099 34.8704 30.5735 34.7312 31.1495 34.454C31.7255 34.1768 32.3003 33.7544 32.8764 33.1892L33.4164 33.7136C32.7888 34.3304 32.1419 34.7984 31.4735 35.1164C30.8039 35.4356 30.0227 35.5952 29.1287 35.5952Z" fill="#10618D"/>
<path d="M38.292 35.4104V25.3556H34.5287V24.6152H42.8568V25.3556H39.0935V35.4104H38.292Z" fill="#10618D"/>
<path d="M44.8199 35.4104V24.6152H45.6216V34.2536L52.638 24.6152H53.424V35.4104H52.6224V25.772L45.6216 35.4104H44.8199Z" fill="#10618D"/>
<path d="M59.1503 35.4104V25.3556H55.3871V24.6152H63.7151V25.3556H59.952V35.4104H59.1503Z" fill="#10618D"/>
<path d="M67.6992 35.5952C67.0824 35.5952 66.5064 35.4716 65.9724 35.2244L66.2808 34.5308C66.702 34.736 67.1748 34.8392 67.6992 34.8392C68.6964 34.8392 69.5088 34.2128 70.1364 32.9576L65.2632 24.6152H66.204L70.5372 32.126L74.238 24.6152H75.1176L70.83 33.2204C70.038 34.8032 68.994 35.5952 67.6992 35.5952Z" fill="#10618D"/>
<path d="M80.4168 35.4104V25.3556H76.6536V24.6152H84.9816V25.3556H81.2184V35.4104H80.4168Z" fill="#10618D"/>
<path d="M6.25074 57.2972V56.0948H5.74195C4.20955 56.0948 2.99875 55.6556 2.10955 54.776C1.22035 53.8964 0.775146 52.7996 0.775146 51.4832C0.775146 50.1668 1.21915 49.0676 2.10955 48.1832C2.99875 47.2988 4.20955 46.8572 5.74195 46.8572H6.25074V45.7628H7.05234V46.8572H7.56114C9.09233 46.8572 10.3031 47.3 11.1923 48.1832C12.0815 49.0676 12.5267 50.168 12.5267 51.4832C12.5267 52.7996 12.0815 53.8964 11.1923 54.776C10.3031 55.6556 9.09233 56.0948 7.56114 56.0948H7.05234V57.2972H6.25074ZM5.74195 55.37H6.25074V47.582H5.74195C4.43635 47.6024 3.42115 47.9672 2.69635 48.6764C1.97155 49.3856 1.60914 50.3216 1.60914 51.4832C1.60914 52.6352 1.97155 53.5652 2.69635 54.2744C3.42115 54.9836 4.43635 55.3484 5.74195 55.37ZM7.05234 55.37H7.56114C8.86673 55.3496 9.88193 54.9848 10.6067 54.2756C11.3315 53.5664 11.6939 52.6364 11.6939 51.4844C11.6939 50.3228 11.3315 49.3868 10.6067 48.6776C9.88193 47.9684 8.86673 47.6036 7.56114 47.5832H7.05234V55.37Z" fill="#10618D"/>
<path d="M14.5032 56.8964V46.1012H15.3048V55.7396L22.3212 46.1012H23.1072V56.8964H22.3056V47.258L15.3036 56.8964H14.5032Z" fill="#10618D"/>
<path d="M28.8335 56.8964V46.8416H25.0703V46.1012H33.3983V46.8416H29.6351V56.8964H28.8335Z" fill="#10618D"/>
<path d="M35.3615 56.8964V46.1012H36.1631V51.098H43.0715V46.1012H43.8731V56.8964H43.0715V51.8384H36.1631V56.8964H35.3615Z" fill="#10618D"/>
<path d="M46.6643 56.8964V46.1012H54.3443V46.8416H47.4659V51.0824H53.6495V51.8228H47.4659V56.156H54.4211V56.8964H46.6643Z" fill="#10618D"/>
<path d="M61.1747 57.0812C59.6423 57.0812 58.3655 56.5436 57.3432 55.4696C56.3196 54.3956 55.8083 53.072 55.8083 51.4988C55.8083 49.9568 56.3219 48.6404 57.3503 47.5508C58.3787 46.4612 59.6639 45.9164 61.2059 45.9164C62.0903 45.9164 62.8427 46.0652 63.4655 46.364C64.0871 46.6628 64.7171 47.1044 65.3543 47.69L64.8299 48.23C63.7403 47.1716 62.5271 46.6412 61.1903 46.6412C59.8955 46.6412 58.8131 47.1068 57.9443 48.0368C57.0755 48.968 56.6411 50.1212 56.6411 51.4988C56.6411 52.8668 57.0803 54.0176 57.9599 54.9536C58.8395 55.8896 59.9207 56.3564 61.2059 56.3564C61.9559 56.3564 62.6195 56.2172 63.1955 55.94C63.7715 55.6628 64.3463 55.2404 64.9223 54.6752L65.4623 55.1996C64.8347 55.8164 64.1879 56.2844 63.5195 56.6024C62.8499 56.9216 62.0687 57.0812 61.1747 57.0812Z" fill="#10618D"/>
<path d="M66.5471 56.8964L71.5739 46.0244H72.3455L77.3723 56.8964H76.4939L75.1211 53.8736H68.7515L67.3787 56.8964H66.5471ZM69.0911 53.1488H74.7815L71.9435 46.9028L69.0911 53.1488Z" fill="#10618D"/>
</svg>
