<svg width="25" height="24" viewBox="0 0 25 24" fill="none" xmlns="http://www.w3.org/2000/svg">
<path d="M11.054 6.24L7.67099 2.335C7.28099 1.885 6.56599 1.887 6.11299 2.341L3.33099 5.128C2.50299 5.957 2.26599 7.188 2.74499 8.175C5.60661 14.1 10.385 18.8851 16.306 21.755C17.292 22.234 18.522 21.997 19.35 21.168L22.158 18.355C22.613 17.9 22.614 17.181 22.16 16.791L18.24 13.426C17.83 13.074 17.193 13.12 16.782 13.532L15.418 14.898C15.3482 14.9712 15.2562 15.0194 15.1563 15.0353C15.0564 15.0512 14.9541 15.0339 14.865 14.986C12.6354 13.7021 10.786 11.8502 9.50499 9.619C9.45702 9.52975 9.43964 9.42723 9.45554 9.32716C9.47144 9.22708 9.51972 9.13499 9.59299 9.065L10.953 7.704C11.365 7.29 11.41 6.65 11.054 6.239V6.24Z" stroke="white" stroke-width="2" stroke-linecap="round" stroke-linejoin="round"/>
</svg>
