<svg width="363" height="379" viewBox="0 0 363 379" fill="none" xmlns="http://www.w3.org/2000/svg">
<path d="M53.7405 276.474C55.9731 257.718 66.1475 247.939 81.5935 247.939C97.0395 247.939 109.561 261.949 109.561 279.231C109.561 298.789 97.0394 310.524 81.5935 310.524C66.1476 310.524 51.6978 293.635 53.7405 276.474Z" fill="#10618D"/>
<path d="M302.97 50.8789C305.203 32.1225 315.377 22.3437 330.823 22.3437C346.269 22.3437 358.79 36.3536 358.79 53.6359C358.79 73.1935 346.269 84.928 330.823 84.928C315.377 84.928 300.927 68.0399 302.97 50.8789Z" fill="#10618D"/>
<path d="M199.254 371.057L209.223 378.277H188.748L186.04 363.409L176.759 312.446L164.319 365.342L161.268 378.277H143.263L150.289 370.972C150.289 370.972 149.902 368.415 149.3 364.096C146.615 344.91 139.825 290.982 145.132 272.913C165.694 272.913 205.42 271.172 205.42 271.172C214.401 303.723 205.871 345.447 201.488 362.85C200.199 368.028 199.254 371.057 199.254 371.057Z" fill="#F9EEEB"/>
<path d="M201.488 362.85L186.04 363.409L176.759 312.446L164.319 365.342L149.3 364.096C146.615 344.91 139.825 290.982 145.132 272.913C165.694 272.913 205.42 271.172 205.42 271.172C214.401 303.723 205.871 345.447 201.488 362.85Z" fill="#10618D"/>
<path d="M357.429 150.167C342.561 194.083 247.982 182.03 247.982 182.03C250.41 222.895 218.913 234.153 205.42 271.172L145.132 272.913C127.514 232.907 101.56 221.67 103.988 180.805C89.0558 198.488 57.9021 208.521 39.3818 193.589C46.4505 203.429 40.6494 229.319 52.5523 254.564C55.8395 252.523 74.7036 258.582 77.9479 265.092C83.3192 275.835 81.8797 281.528 78.6784 290.509C75.0903 300.543 61.3184 300.693 37.7489 276.372C13.9218 251.814 -10.8938 212.26 5.0483 163.337C16.0058 129.735 91.4621 122.666 91.4621 122.666C103.988 108.808 121.026 108.077 134.003 110.312C140.541 111.424 146.905 113.389 152.932 116.156L156.713 115.984L184.214 118.67L205.334 118.39C210.58 117.567 215.88 117.137 221.19 117.101C229.935 116.994 240.785 117.918 249.68 121.957C261.647 97.5495 311.837 99.204 325.329 117.531C318.282 107.691 324.083 81.8009 312.159 56.5557C308.872 58.5967 305.993 68.48 301.051 73.8298C296.131 79.1797 278.019 65.601 276.794 56.1474C275.548 46.6724 303.414 10.4482 326.984 34.7481C350.79 59.3059 373.929 101.438 357.429 150.167Z" fill="#F9EEEB"/>
<path d="M133.702 283.075C133.788 283.483 133.659 283.505 133.272 283.097L133.702 283.075Z" fill="#02DFB9"/>
<path d="M205.42 271.172L145.132 272.913C127.514 232.907 101.56 221.67 103.988 180.805C135.851 161.318 137.763 134.698 134.003 110.312C140.541 111.424 146.904 113.389 152.931 116.156L156.713 115.984L184.214 118.67L205.334 118.39C210.58 117.568 215.88 117.137 221.19 117.101C221.555 141.057 226.819 169.998 247.982 182.03C250.41 222.895 218.913 234.153 205.42 271.172Z" fill="#02DFB9"/>
<path d="M313.658 56.3927C311.426 75.1491 301.251 84.9279 285.805 84.9279C270.359 84.9279 257.838 70.918 257.838 53.6359C257.838 34.0783 270.359 22.3438 285.805 22.3438C301.251 22.3438 315.701 39.2317 313.658 56.3927Z" fill="#10618D"/>
<path d="M289.209 54.3742C288.611 59.398 285.886 62.0172 281.749 62.0172C277.612 62.0172 274.258 58.2647 274.258 53.6358C274.258 48.3975 277.612 45.2545 281.749 45.2545C285.886 45.2545 289.756 49.7778 289.209 54.3742Z" fill="#02DFB9"/>
<path d="M148.82 71.4837C153.871 71.3003 157.772 65.8307 157.533 59.267C157.295 52.7033 153.008 47.5311 147.957 47.7145C142.907 47.898 139.006 53.3676 139.244 59.9313C139.483 66.4949 143.77 71.6672 148.82 71.4837Z" fill="#F9EEEB"/>
<path d="M236.875 102.62C236.875 102.62 222.071 107.562 211.436 107.562C212.317 153.648 192.851 163.939 176.544 164.348C160.237 164.756 150.246 143.55 150.568 119.508C150.697 109.818 150.439 94.7567 151.17 78.5567C152.76 43.2134 159.162 2.45575 185.03 0.178326C201.316 -1.2397 213.864 5.89348 223.339 18.2475C229.935 26.7987 235.07 37.8851 238.937 50.368L225.767 53.2685L236.875 102.62Z" fill="#F9EEEB"/>
<path d="M223.339 18.2475C203.057 25.617 176.544 16.1849 176.544 16.1849C176.544 16.1849 173.02 64.0541 151.17 78.5567C152.76 43.2134 159.162 2.45571 185.031 0.178284C201.317 -1.23967 213.864 5.89346 223.339 18.2475Z" fill="#10618D"/>
<path d="M196.369 53.5927C195.589 53.5909 194.813 53.4671 194.07 53.2255C190.285 52.0127 187.41 48.085 186.38 42.7241C186.327 42.4447 186.387 42.1557 186.547 41.9204C186.707 41.6851 186.953 41.5228 187.233 41.4689C187.512 41.415 187.801 41.4741 188.037 41.6331C188.273 41.792 188.436 42.038 188.491 42.3171C189.37 46.8974 191.701 50.2104 194.727 51.1798C195.54 51.4752 196.419 51.54 197.266 51.3671C198.114 51.1942 198.897 50.7902 199.529 50.1999C201.369 48.4521 201.839 45.2524 200.82 41.4253C200.783 41.2889 200.774 41.1467 200.793 41.0068C200.811 40.8669 200.857 40.732 200.928 40.6098C200.999 40.4877 201.093 40.3806 201.205 40.2948C201.317 40.209 201.445 40.1461 201.581 40.1098C201.718 40.0734 201.86 40.0643 202 40.0828C202.14 40.1014 202.275 40.1474 202.397 40.2181C202.519 40.2889 202.626 40.3829 202.712 40.495C202.798 40.6071 202.86 40.735 202.897 40.8714C204.124 45.4832 203.436 49.4508 201.011 51.7567C199.759 52.946 198.096 53.6041 196.369 53.5927Z" fill="#10618D"/>
<path d="M217.024 87.0564C216.271 87.0553 215.523 86.9371 214.806 86.706C211.355 85.5982 208.824 82.0963 207.865 77.1006C207.813 76.8211 207.873 76.5321 208.032 76.2968C208.192 76.0616 208.439 75.8992 208.718 75.8454C208.997 75.7915 209.286 75.8505 209.522 76.0095C209.758 76.1685 209.921 76.4145 209.976 76.6935C210.782 80.8962 212.784 83.8 215.463 84.6603C216.351 84.9419 217.299 84.976 218.204 84.759C219.11 84.5419 219.94 84.082 220.603 83.4287C222.788 81.3536 223.407 77.7888 222.305 73.6533C222.232 73.3778 222.271 73.0845 222.413 72.8378C222.556 72.591 222.791 72.4112 223.067 72.3377C223.342 72.2643 223.636 72.3032 223.882 72.4461C224.129 72.5889 224.309 72.8239 224.382 73.0994C225.692 78.0196 224.854 82.3524 222.085 84.9855C220.729 86.3034 218.915 87.0455 217.024 87.0564Z" fill="#10618D"/>
<path d="M219.917 46.8575C219.456 46.8577 218.997 46.8028 218.549 46.6939C215.337 45.9196 212.76 42.6276 211.478 37.6591C211.443 37.5225 211.435 37.3802 211.455 37.2404C211.475 37.1007 211.522 36.9662 211.593 36.8446C211.738 36.5991 211.975 36.4211 212.251 36.3499C212.527 36.2786 212.82 36.32 213.065 36.4648C213.311 36.6096 213.489 36.846 213.56 37.122C214.636 41.2953 216.638 44.0229 219.053 44.6062C219.724 44.766 220.426 44.735 221.081 44.5166C221.735 44.2982 222.315 43.9012 222.756 43.3704C224.516 41.3834 224.739 37.9718 223.35 34.2433C223.301 34.1111 223.278 33.9704 223.283 33.8293C223.288 33.6882 223.321 33.5496 223.379 33.4212C223.498 33.1618 223.714 32.9602 223.981 32.8606C224.249 32.761 224.544 32.7716 224.804 32.89C225.063 33.0085 225.265 33.2251 225.364 33.4922C227.034 37.9802 226.661 42.2037 224.363 44.795C223.812 45.4362 223.131 45.952 222.364 46.3077C221.597 46.6635 220.763 46.851 219.917 46.8575Z" fill="#10618D"/>
<path d="M64.4287 281.988C62.1961 300.745 52.0217 310.523 36.5757 310.523C21.1298 310.523 8.6084 296.514 8.6084 279.231C8.6084 259.674 21.1298 247.939 36.5757 247.939C52.0217 247.939 66.4714 264.827 64.4287 281.988Z" fill="#10618D"/>
<path d="M39.9794 279.97C39.3814 284.994 36.6562 287.613 32.5192 287.613C28.3821 287.613 25.0283 283.86 25.0283 279.231C25.0283 273.993 28.3821 270.85 32.5192 270.85C36.6562 270.85 40.5265 275.373 39.9794 279.97Z" fill="#02DFB9"/>
</svg>
