<svg width="16" height="14" viewBox="0 0 16 14" fill="none" xmlns="http://www.w3.org/2000/svg">
<path d="M13.569 1.31879C13.8331 1.06733 14.1846 0.928311 14.5493 0.931071C14.9139 0.93383 15.2633 1.07815 15.5236 1.33358C15.7839 1.589 15.9347 1.93556 15.9444 2.30011C15.954 2.66467 15.8217 3.01871 15.5752 3.28754L8.09398 12.6438C7.96534 12.7823 7.81008 12.8935 7.63748 12.9707C7.46488 13.0479 7.27849 13.0895 7.08946 13.093C6.90042 13.0965 6.71262 13.0618 6.53728 12.9911C6.36194 12.9204 6.20267 12.815 6.06898 12.6813L1.10773 7.72004C0.969572 7.59129 0.858755 7.43604 0.781895 7.26355C0.705035 7.09105 0.663707 6.90483 0.660375 6.71602C0.657044 6.5272 0.691778 6.33964 0.762505 6.16454C0.833232 5.98944 0.938503 5.83037 1.07204 5.69684C1.20557 5.5633 1.36464 5.45803 1.53974 5.38731C1.71484 5.31658 1.9024 5.28184 2.09121 5.28518C2.28003 5.28851 2.46624 5.32984 2.63874 5.4067C2.81124 5.48356 2.96649 5.59437 3.09523 5.73254L7.02148 9.65691L13.5334 1.36004C13.5451 1.3456 13.5576 1.33183 13.5709 1.31879H13.569Z" fill="white"/>
</svg>
