<svg width="20" height="20" viewBox="0 0 20 20" fill="none" xmlns="http://www.w3.org/2000/svg">
<path d="M18 20H2C1.46957 20 0.960859 19.7893 0.585786 19.4142C0.210714 19.0391 0 18.5304 0 18V7.049C0.0166235 6.71845 0.113779 6.39696 0.283011 6.11253C0.452244 5.82809 0.688425 5.58932 0.971 5.417L8.971 0.617002C9.28172 0.430693 9.63721 0.332283 9.9995 0.332283C10.3618 0.332283 10.7173 0.430693 11.028 0.617002L19.028 5.417C19.629 5.78 19.998 6.43 20 7.132V18C20 18.5304 19.7893 19.0391 19.4142 19.4142C19.0391 19.7893 18.5304 20 18 20ZM2 7.868V18H18V7.868L10 13.201L2 7.868ZM10 2.332L3.316 6.342L10 10.798L16.683 6.342L10 2.332Z" fill="#8E9DA7"/>
</svg>
