<svg width="156" height="133" viewBox="0 0 156 133" fill="none" xmlns="http://www.w3.org/2000/svg">
<rect y="5" width="152" height="128" fill="white"/>
<path d="M122.834 47.3789H114.458H101.874L102.48 45.259C102.904 43.771 102.726 42.201 101.97 40.8411C101.214 39.4811 99.9804 38.4971 98.4924 38.0731L46.6192 23.2253C43.5392 22.3433 40.3153 24.1293 39.4333 27.2113L35.9473 39.3931L34.9974 42.7051L30.2254 59.3788C29.7994 60.8627 29.9814 62.4327 30.7354 63.7927C31.4894 65.1527 32.7254 66.1367 34.2114 66.5627L48.9232 70.7746V77.9785V86.5163C48.9232 88.2623 50.3451 89.6843 52.0911 89.6843H68.4389C68.0009 92.7863 67.0609 95.6602 65.2389 97.8022C58.407 105.824 61.447 117.048 61.579 117.522C61.759 118.162 62.3409 118.582 62.9769 118.582C63.1069 118.582 63.2389 118.566 63.3689 118.53C64.1409 118.314 64.5929 117.51 64.3749 116.738C64.3469 116.636 61.609 106.542 67.4509 99.6862C72.8808 93.3023 71.7908 82.4084 71.0688 75.2005C70.9528 74.0366 70.8448 72.9646 70.7768 72.0206C70.6868 70.7906 71.1288 69.5866 72.0188 68.6286C73.0428 67.5266 74.4968 66.8947 76.0127 66.8947C77.5207 66.8947 79.0267 67.5546 80.0427 68.6566C80.9187 69.6086 81.3487 70.8006 81.2487 72.0086C79.1547 97.4282 86.4126 101.728 87.2466 102.136C87.9666 102.488 88.8365 102.188 89.1885 101.468C89.5405 100.744 89.2405 99.8741 88.5206 99.5241C88.4786 99.5042 85.7266 97.6762 84.4366 89.6843H103.056C103.95 98.3102 99.5784 108.176 94.5665 116.298C94.1465 116.984 94.3585 117.876 95.0405 118.296C95.2785 118.444 95.5404 118.514 95.8004 118.514C96.2884 118.514 96.7624 118.268 97.0384 117.822C103.694 107.034 106.63 97.5182 105.93 89.6843H114.456H122.832C124.58 89.6843 126 88.2623 126 86.5163V77.9885V59.0708V50.5429C126.002 48.7989 124.582 47.3789 122.834 47.3789ZM123.098 50.5449V57.4608C119.496 56.7848 116.654 53.8949 116.042 50.2809H122.834C122.98 50.2809 123.098 50.4009 123.098 50.5449ZM42.2313 28.0112C42.5952 26.7373 43.7612 25.9053 45.0252 25.9053C45.2892 25.9053 45.5572 25.9413 45.8232 26.0173L97.6964 40.8651C98.4384 41.0771 99.0544 41.571 99.4344 42.249C99.8124 42.933 99.9024 43.713 99.6904 44.457L98.7304 47.815L41.2713 31.3672L42.2313 28.0112ZM39.1413 38.8071L40.4713 34.1612L97.9304 50.6049L95.6544 58.5568L38.1953 42.1091L39.1413 38.8071ZM51.8331 86.5163V79.5605C55.521 80.1804 58.431 83.0924 59.047 86.7764H52.0951C51.9491 86.7784 51.8331 86.6603 51.8331 86.5163ZM68.7169 86.7784H61.993C61.335 81.4844 57.125 77.2765 51.8311 76.6185V71.6046L68.2629 76.3105C68.5709 79.4265 68.8989 83.1404 68.7169 86.7784ZM76.0187 63.9907C73.7008 63.9907 71.4708 64.9587 69.8968 66.6507C68.4509 68.2047 67.7349 70.1866 67.8849 72.2306C67.9069 72.5346 67.9369 72.8726 67.9669 73.2006L35.0154 63.7687C34.2734 63.5567 33.6574 63.0627 33.2794 62.3848C32.9014 61.7008 32.8094 60.9208 33.0234 60.1768L37.3953 44.903L94.8545 61.3488L90.4825 76.6245C90.0425 78.1645 88.4306 79.0565 86.8906 78.6165L83.8366 77.7425C83.8886 76.0365 83.9866 74.2146 84.1486 72.2446C84.3166 70.2166 83.6186 68.2426 82.1847 66.6847C80.6087 64.9707 78.3587 63.9907 76.0187 63.9907ZM84.0706 86.7784C83.9006 85.0144 83.8006 83.0104 83.7906 80.7545L86.0886 81.4105C86.6206 81.5625 87.1566 81.6345 87.6846 81.6345C90.2125 81.6345 92.5425 79.9705 93.2725 77.4265L98.0444 60.7528L98.7524 58.2748L101.04 50.2809H113.092C113.75 55.4908 117.888 59.6847 123.094 60.4127V76.6465C117.888 77.3725 113.75 81.5684 113.092 86.7764H84.0706V86.7784ZM122.834 86.7784H116.042C116.654 83.1644 119.496 80.2765 123.098 79.6005V86.5163C123.098 86.6603 122.98 86.7784 122.834 86.7784Z" fill="#333C43"/>
<path d="M59.6091 59.9269L41.3154 54.693C40.5414 54.469 39.7394 54.9169 39.5194 55.6889C39.2994 56.4589 39.7454 57.2649 40.5154 57.4829L58.8091 62.7209C58.9431 62.7609 59.0771 62.7768 59.2091 62.7768C59.8411 62.7768 60.4231 62.3609 60.6051 61.7229C60.8251 60.9529 60.3811 60.1489 59.6091 59.9269Z" fill="#333C43"/>
<path d="M108.202 62.7207C104.998 62.7207 102.392 65.3286 102.392 68.5286C102.392 71.7346 105 74.3405 108.202 74.3405C111.406 74.3405 114.012 71.7326 114.012 68.5286C114.012 65.3266 111.406 62.7207 108.202 62.7207ZM108.202 71.4346C106.6 71.4346 105.298 70.1326 105.298 68.5286C105.298 66.9266 106.6 65.6267 108.202 65.6267C109.804 65.6267 111.108 66.9266 111.108 68.5286C111.108 70.1326 109.804 71.4346 108.202 71.4346Z" fill="#333C43"/>
<rect x="110" y="2" width="44" height="44" rx="22" fill="#02DFB9"/>
<path d="M137.74 27.354H135.688V30H132.844V27.354H126.058V25.392L131.998 17.4H135.058L129.55 24.978H132.934V22.62H135.688V24.978H137.74V27.354Z" fill="white"/>
<rect x="110" y="2" width="44" height="44" rx="22" stroke="white" stroke-width="4"/>
</svg>
