<svg width="156" height="133" viewBox="0 0 156 133" fill="none" xmlns="http://www.w3.org/2000/svg">
<rect y="5" width="152" height="128" fill="white"/>
<path d="M118.18 21H33.8179C30.6099 21 28 23.6119 28 26.8179V93.7245V101C28 104.208 30.6099 106.818 33.8179 106.818H64.0392L59.8833 114.09H54.1814C53.3795 114.09 52.7275 114.74 52.7275 115.544C52.7275 116.348 53.3795 117 54.1814 117H60.7253H91.2707H97.8166C98.6185 117 99.2705 116.35 99.2705 115.544C99.2705 114.742 98.6185 114.09 97.8166 114.09H92.1147L87.9588 106.818H118.178C121.386 106.818 123.996 104.206 123.996 101V93.7245V26.8179C123.998 23.6099 121.388 21 118.18 21ZM88.7647 114.09H63.2313L67.3872 106.818H84.6088L88.7647 114.09ZM121.09 101C121.09 102.602 119.784 103.908 118.18 103.908H85.4528H66.5432H33.8159C32.2119 103.908 30.9059 102.602 30.9059 101V95.1825H121.086V101H121.09ZM121.09 92.2705H30.9099V26.8159C30.9099 25.2099 32.2159 23.9079 33.8199 23.9079H118.182C119.786 23.9079 121.092 25.2099 121.092 26.8159V92.2705H121.09Z" fill="#333C43"/>
<path d="M75.999 101C76.8031 101 77.4549 100.348 77.4549 99.5441C77.4549 98.74 76.8031 98.0881 75.999 98.0881C75.1949 98.0881 74.543 98.74 74.543 99.5441C74.543 100.348 75.1949 101 75.999 101Z" fill="#333C43"/>
<path d="M100.726 39.1816H51.2713C50.4693 39.1816 49.8174 39.8316 49.8174 40.6356V75.5449C49.8174 76.3469 50.4693 77.0029 51.2713 77.0029H74.2889C75.0908 77.0029 75.7428 76.3489 75.7428 75.5449C75.7428 74.7409 75.0908 74.0909 74.2889 74.0909H52.7253V42.0916H99.2684V56.8293C99.2684 57.6313 99.9203 58.2833 100.724 58.2833C101.526 58.2833 102.178 57.6333 102.178 56.8293V40.6336C102.18 39.8317 101.528 39.1816 100.726 39.1816Z" fill="#333C43"/>
<path d="M100.727 69.9189C99.9225 69.9189 99.2705 70.5729 99.2705 71.3769V74.0909H93.4226C92.6187 74.0909 91.9667 74.7409 91.9667 75.5448C91.9667 76.3488 92.6187 77.0028 93.4226 77.0028H100.727C101.528 77.0028 102.18 76.3488 102.18 75.5448V71.3769C102.18 70.5729 101.528 69.9189 100.727 69.9189Z" fill="#333C43"/>
<path d="M102.178 64.0349C102.152 63.4369 101.762 62.9189 101.198 62.7229L74.923 53.7091C74.395 53.5231 73.813 53.6631 73.4231 54.0551C73.0291 54.4471 72.8951 55.029 73.0771 55.557L82.0929 81.8345C82.2869 82.3985 82.8069 82.7905 83.4048 82.8145C83.4268 82.8145 83.4469 82.8145 83.4689 82.8145C84.0409 82.8145 84.5628 82.4785 84.7968 81.9525L89.8847 70.5147L101.32 65.4288C101.864 65.1888 102.206 64.6328 102.178 64.0349ZM88.1888 68.0888C87.8608 68.2348 87.5988 68.4948 87.4528 68.8228L83.6409 77.3886L76.791 57.425L96.7546 64.2769L88.1888 68.0888Z" fill="#333C43"/>
<path d="M43.3536 48.1515C42.6837 47.7035 41.7817 47.8875 41.3357 48.5555L35.5178 57.2833C35.1918 57.7713 35.1918 58.4092 35.5178 58.8972L41.3357 67.625C41.6157 68.043 42.0777 68.271 42.5477 68.271C42.8237 68.271 43.1037 68.1931 43.3536 68.0251C44.0216 67.5791 44.2016 66.6771 43.7556 66.0091L38.4758 58.0873L43.7556 50.1694C44.2016 49.5034 44.0216 48.5974 43.3536 48.1515Z" fill="#333C43"/>
<path d="M110.662 48.5555C110.216 47.8875 109.312 47.7035 108.644 48.1515C107.976 48.5974 107.796 49.5034 108.24 50.1714L113.52 58.0893L108.24 66.0111C107.794 66.6791 107.976 67.5811 108.644 68.0271C108.892 68.195 109.172 68.273 109.45 68.273C109.92 68.273 110.382 68.0451 110.662 67.6271L116.48 58.8992C116.806 58.4113 116.806 57.7733 116.48 57.2853L110.662 48.5555Z" fill="#333C43"/>
<rect x="110" y="2" width="44" height="44" rx="22" fill="#02DFB9"/>
<path d="M136.616 27.624V30H127.094V28.11L131.954 23.52C132.47 23.028 132.818 22.608 132.998 22.26C133.178 21.9 133.268 21.546 133.268 21.198C133.268 20.694 133.094 20.31 132.746 20.046C132.41 19.77 131.912 19.632 131.252 19.632C130.7 19.632 130.202 19.74 129.758 19.956C129.314 20.16 128.942 20.472 128.642 20.892L126.518 19.524C127.01 18.792 127.688 18.222 128.552 17.814C129.416 17.394 130.406 17.184 131.522 17.184C132.458 17.184 133.274 17.34 133.97 17.652C134.678 17.952 135.224 18.384 135.608 18.948C136.004 19.5 136.202 20.154 136.202 20.91C136.202 21.594 136.058 22.236 135.77 22.836C135.482 23.436 134.924 24.12 134.096 24.888L131.198 27.624H136.616Z" fill="white"/>
<rect x="110" y="2" width="44" height="44" rx="22" stroke="white" stroke-width="4"/>
</svg>
