<svg width="156" height="128" viewBox="0 0 156 128" fill="none" xmlns="http://www.w3.org/2000/svg">
<rect width="152" height="128" fill="white"/>
<path d="M124 35.0281L119.914 27.9521L115.828 35.0281H118.452V66.3741C118.452 89.7801 99.41 108.824 76.0021 108.824H73.0741C72.2661 108.824 71.6121 109.48 71.6121 110.288C71.6121 111.096 72.2681 111.75 73.0741 111.75H76.0021C101.024 111.75 121.378 91.3941 121.378 66.3741V35.0281H124Z" fill="#333C43"/>
<path d="M36.174 97.7199H33.55V66.374C33.55 42.968 52.592 23.924 76 23.924H119.914C120.722 23.924 121.378 23.268 121.378 22.46C121.378 21.654 120.722 21 119.914 21H76C50.98 21 30.624 41.356 30.624 66.376V97.7219H28L32.086 104.8L36.174 97.7199Z" fill="#333C43"/>
<path d="M64.6142 108.824H58.2722C57.4642 108.824 56.8082 109.48 56.8082 110.288C56.8082 111.096 57.4642 111.75 58.2722 111.75H64.6142C65.4222 111.75 66.0782 111.096 66.0782 110.288C66.0782 109.48 65.4222 108.824 64.6142 108.824Z" fill="#333C43"/>
<path d="M49.8141 108.824H43.4721C42.6641 108.824 42.0081 109.48 42.0081 110.288C42.0081 111.096 42.6641 111.75 43.4721 111.75H49.8141C50.6221 111.75 51.2781 111.096 51.2781 110.288C51.2781 109.48 50.6221 108.824 49.8141 108.824Z" fill="#333C43"/>
<path d="M35.0139 108.824H32.0859C31.2779 108.824 30.6219 109.48 30.6219 110.288C30.6219 111.096 31.2779 111.75 32.0859 111.75H35.0139C35.8219 111.75 36.4779 111.096 36.4779 110.288C36.4779 109.48 35.8219 108.824 35.0139 108.824Z" fill="#333C43"/>
<path d="M67.524 37.4818C66.862 37.6638 66.208 37.8698 65.566 38.0978C64.804 38.3658 64.402 39.2038 64.672 39.9658C64.884 40.5678 65.45 40.9418 66.052 40.9418C66.214 40.9418 66.378 40.9138 66.54 40.8598C67.118 40.6518 67.706 40.4698 68.302 40.3058C69.082 40.0918 69.538 39.2838 69.324 38.5058C69.108 37.7258 68.302 37.2658 67.524 37.4818Z" fill="#333C43"/>
<path d="M59.1419 41.2759C58.5699 41.6519 58.0119 42.0439 57.4679 42.4559C56.8239 42.9419 56.6959 43.8619 57.1839 44.5059C57.4719 44.8839 57.9099 45.0839 58.3519 45.0839C58.6599 45.0839 58.9699 44.9879 59.2339 44.7899C59.7259 44.4159 60.2319 44.0619 60.7479 43.7219C61.4239 43.2779 61.6119 42.3699 61.1679 41.6939C60.7239 41.0179 59.8159 40.8319 59.1419 41.2759Z" fill="#333C43"/>
<path d="M47.6521 55.3538C47.4021 55.9878 47.1721 56.6338 46.9621 57.2878C46.7181 58.0598 47.1441 58.8818 47.9141 59.1278C48.0621 59.1738 48.2121 59.1958 48.3581 59.1958C48.9781 59.1958 49.5561 58.7998 49.7541 58.1758C49.9421 57.5838 50.1481 57.0018 50.3761 56.4298C50.6721 55.6778 50.3041 54.8258 49.5521 54.5298C48.8041 54.2338 47.9501 54.6038 47.6521 55.3538Z" fill="#333C43"/>
<path d="M52.312 47.4222C51.88 47.9522 51.464 48.4962 51.068 49.0562C50.602 49.7162 50.758 50.6282 51.418 51.0962C51.674 51.2782 51.97 51.3662 52.262 51.3662C52.72 51.3662 53.172 51.1522 53.458 50.7462C53.814 50.2422 54.188 49.7522 54.58 49.2762C55.09 48.6482 54.998 47.7262 54.372 47.2142C53.742 46.7042 52.822 46.7962 52.312 47.4222Z" fill="#333C43"/>
<path d="M105.516 66.3739C105.516 49.8459 92.072 36.4019 75.546 36.3979C75.544 36.3979 75.542 36.3979 75.542 36.3979H75.54C75.218 36.3899 74.914 36.3999 74.602 36.4119C73.794 36.4379 73.16 37.1139 73.186 37.9219C73.212 38.7139 73.862 39.3399 74.648 39.3399C74.664 39.3399 74.68 39.3399 74.696 39.3379C74.95 39.3299 75.206 39.3239 75.464 39.3239C75.49 39.3239 75.51 39.3279 75.54 39.3239C90.456 39.3239 102.588 51.4599 102.588 66.3739C102.588 71.6019 101.072 76.4719 98.494 80.6139C97.768 78.5419 96.19 76.7839 94.008 75.7539C92.392 74.9859 90.646 74.3299 88.674 73.7439C87.888 73.5119 87.094 73.2899 86.306 73.1039C84.212 72.5339 82.68 71.0539 82.31 69.2359C82.304 69.1959 82.296 69.1379 82.29 69.0839C84.858 66.7159 86.516 63.0459 86.516 58.9199C86.516 52.2159 82 47.5339 75.538 47.5339C69.074 47.5339 64.56 52.2179 64.56 58.9199C64.56 63.0419 66.214 66.7099 68.776 69.0739C68.762 69.1899 68.748 69.2959 68.732 69.3739C68.356 71.1539 66.802 72.6159 64.776 73.1019C63.964 73.2959 63.182 73.5119 62.388 73.7479C60.45 74.3239 58.658 74.9999 57.062 75.7539C54.882 76.7859 53.312 78.5459 52.588 80.6179C50.006 76.4739 48.49 71.6019 48.49 66.3719C48.49 65.7499 48.51 65.1339 48.552 64.5219C48.608 63.7159 47.998 63.0159 47.19 62.9639C46.384 62.8879 45.686 63.5159 45.632 64.3259C45.586 65.0019 45.562 65.6859 45.562 66.3719C45.562 82.9019 59.01 96.3479 75.538 96.3479C92.068 96.3499 105.516 82.9039 105.516 66.3739ZM67.488 58.9199C67.488 53.7839 70.648 50.4619 75.538 50.4619C80.428 50.4619 83.588 53.7839 83.588 58.9199C83.588 64.4279 79.976 68.9079 75.538 68.9079C71.1 68.9079 67.488 64.4279 67.488 58.9199ZM71.34 70.8499C72.634 71.4819 74.052 71.8359 75.54 71.8359C77.026 71.8359 78.442 71.4819 79.736 70.8499C80.326 72.4719 81.49 73.8479 83.046 74.8219C82.444 76.8819 79.536 78.9019 75.54 78.9019C71.544 78.9019 68.656 76.8959 68.054 74.8499C69.588 73.8899 70.764 72.4879 71.34 70.8499ZM55.046 83.9799V83.2179C55.046 81.2019 56.298 79.3579 58.316 78.4039C59.776 77.7119 61.428 77.0919 63.222 76.5579C63.93 76.3479 64.63 76.1559 65.356 75.9799C66.52 79.3319 70.616 81.8319 75.54 81.8319C80.454 81.8319 84.57 79.3399 85.744 75.9859C86.45 76.1559 87.15 76.3479 87.838 76.5519C89.666 77.0939 91.274 77.6979 92.758 78.4019C94.778 79.3579 96.032 81.2019 96.032 83.2219V83.9799C91.068 89.7498 83.73 93.4258 75.538 93.4258C67.346 93.4258 60.01 89.7498 55.046 83.9799Z" fill="#333C43"/>
<rect x="110" y="2" width="44" height="44" rx="22" fill="#02DFB9"/>
<path d="M133.562 17.4V30H130.646V19.74H128.126V17.4H133.562Z" fill="white"/>
<rect x="110" y="2" width="44" height="44" rx="22" stroke="white" stroke-width="4"/>
</svg>
