<svg width="156" height="133" viewBox="0 0 156 133" fill="none" xmlns="http://www.w3.org/2000/svg">
<rect y="5" width="152" height="128" fill="white"/>
<path d="M110 19H46C37.178 19 30 26.178 30 34.998V98.998C30 107.822 37.178 115 46 115H110C118.824 115 126 107.822 126 98.998V34.998C126.002 26.178 118.824 19 110 19ZM123.092 98.998C123.092 106.216 117.218 112.09 110 112.09H46C38.782 112.09 32.91 106.216 32.91 98.998V34.998C32.91 27.78 38.782 21.908 46 21.908H110C117.218 21.908 123.092 27.78 123.092 34.998V98.998Z" fill="#333C43"/>
<path d="M109.892 46.0782C109.892 46.0782 109.89 46.0762 109.888 46.0722C109.884 46.0602 109.874 46.0542 109.868 46.0422C109.802 45.8962 109.712 45.7662 109.606 45.6542C109.57 45.6142 109.532 45.5862 109.494 45.5502C109.402 45.4722 109.302 45.4042 109.192 45.3482C109.146 45.3242 109.102 45.3022 109.052 45.2802C108.89 45.2222 108.722 45.1782 108.544 45.1782H47.4541C47.2761 45.1782 47.106 45.2202 46.946 45.2802C46.896 45.3022 46.8541 45.3242 46.8081 45.3482C46.6981 45.4022 46.5981 45.4722 46.5061 45.5502C46.4681 45.5862 46.4281 45.6142 46.3921 45.6542C46.2861 45.7682 46.1961 45.8962 46.1301 46.0422C46.1261 46.0542 46.1161 46.0602 46.1121 46.0722C46.1101 46.0762 46.1102 46.0782 46.1082 46.0782C46.0402 46.2422 46.0161 46.4122 46.0101 46.5822C46.0081 46.6042 45.998 46.6182 45.998 46.6342V87.3622C45.998 87.3902 46.012 87.4082 46.014 87.4362C46.022 87.6002 46.0481 87.7602 46.1101 87.9162C46.1801 88.0822 46.2821 88.2322 46.4041 88.3622C46.4101 88.3702 46.4141 88.3802 46.4221 88.3882C46.5561 88.5222 46.7181 88.6282 46.8961 88.7042C47.0721 88.7782 47.2621 88.8162 47.4521 88.8162H91.8601L107.516 104.394C107.792 104.672 108.164 104.818 108.542 104.818C108.73 104.818 108.92 104.78 109.1 104.706C109.644 104.482 109.996 103.95 109.996 103.362V46.6342C109.996 46.6162 109.988 46.6022 109.986 46.5822C109.986 46.4122 109.958 46.2422 109.892 46.0782ZM105.022 48.0882L87.0741 65.9482C87.0661 65.9582 87.0541 65.9602 87.0461 65.9702C87.0401 65.9762 87.0361 65.9882 87.0281 65.9962L78.0001 74.9782L68.9541 65.9762C68.9521 65.9762 68.9521 65.9762 68.9521 65.9762V65.9722L50.9801 48.0902H105.022V48.0882ZM65.8601 67.0002L48.9102 83.8642V50.1342L65.8601 67.0002ZM93.4901 86.3322C93.2181 86.0602 92.8501 85.9082 92.4641 85.9082H50.9781L67.92 69.0502L76.9761 78.0622C77.2581 78.3442 77.6301 78.4842 78.0021 78.4842C78.3721 78.4842 78.7441 78.3442 79.0281 78.0622L88.0841 69.0502L100.07 80.9762C100.354 81.2582 100.724 81.3982 101.096 81.3982C101.47 81.3982 101.844 81.2562 102.128 80.9702C102.694 80.4002 102.692 79.4802 102.122 78.9142L90.1481 67.0002L107.094 50.1322V99.8642L93.4901 86.3322Z" fill="#333C43"/>
<rect x="110" y="2" width="44" height="44" rx="22" fill="#02DFB9"/>
<path d="M133.088 22.53C134.192 22.71 135.038 23.124 135.626 23.772C136.214 24.408 136.508 25.2 136.508 26.148C136.508 26.88 136.316 27.558 135.932 28.182C135.548 28.794 134.96 29.286 134.168 29.658C133.388 30.03 132.428 30.216 131.288 30.216C130.4 30.216 129.524 30.102 128.66 29.874C127.808 29.634 127.082 29.298 126.482 28.866L127.616 26.634C128.096 26.994 128.648 27.276 129.272 27.48C129.908 27.672 130.556 27.768 131.216 27.768C131.948 27.768 132.524 27.63 132.944 27.354C133.364 27.066 133.574 26.664 133.574 26.148C133.574 25.116 132.788 24.6 131.216 24.6H129.884V22.674L132.476 19.74H127.112V17.4H135.932V19.29L133.088 22.53Z" fill="white"/>
<rect x="110" y="2" width="44" height="44" rx="22" stroke="white" stroke-width="4"/>
</svg>
