<svg width="102" height="94" viewBox="0 0 102 94" fill="none" xmlns="http://www.w3.org/2000/svg">
<path d="M34.7556 35.9255C36.5112 33.8579 38.6508 32.1251 41.0664 30.8459V17.1274C34.362 19.1734 28.5372 23.233 24.2916 28.5982L34.7556 35.9255Z" fill="#02DFB9"/>
<path d="M44.6243 47.6914V70.0822C35.9736 67.3558 29.682 59.2582 29.682 49.7182C29.682 45.8878 30.696 42.2914 32.4696 39.1798L22.0092 31.855C18.8052 37.0486 16.9548 43.1662 16.9548 49.717C16.9548 66.3454 28.8672 80.1898 44.6243 83.1862V86.7946H57.4319V56.659L44.6243 47.6914Z" fill="white"/>
<path d="M51.0276 15.6465C48.8388 15.6465 46.698 15.8553 44.6244 16.2501V42.8361L57.432 51.8037V29.3553C66.0828 32.0817 72.3744 40.1793 72.3744 49.7193C72.3744 57.8937 67.7544 65.0085 60.99 68.5941V82.3101C74.9484 78.0501 85.1016 65.0721 85.1016 49.7193C85.1004 30.9009 69.846 15.6465 51.0276 15.6465Z" fill="white"/>
<path d="M30.2196 88.3356L26.7528 93.9996L24.6972 92.742C24.066 92.3556 23.6532 91.8888 23.4564 91.3428C23.2608 90.7968 23.3292 90.2508 23.6628 89.706C24.0132 89.1336 24.4956 88.8204 25.1124 88.764C25.7292 88.7076 26.3508 88.8708 26.976 89.2536L28.5048 90.1896L29.7972 88.0776L30.2196 88.3356ZM28.2696 90.5784L26.7156 89.628C26.1864 89.304 25.6824 89.172 25.2012 89.2296C24.7212 89.2872 24.3504 89.5296 24.0888 89.9556C23.8212 90.3924 23.7708 90.8244 23.9352 91.2516C24.0996 91.6788 24.444 92.052 24.9672 92.3724L26.5692 93.3528L28.2696 90.5784Z" fill="white"/>
<path d="M21.87 82.226C22.1424 82.49 22.3428 82.7924 22.4724 83.1308L22.0392 83.3048C21.942 83.0336 21.7776 82.7852 21.546 82.5596C21.1068 82.1312 20.4792 82.0592 19.6644 82.3436L18.2316 88.112L17.8176 87.7088L19.1304 82.5392L14.2764 84.2612L13.8888 83.8844L19.4712 81.9308C20.4996 81.5708 21.3 81.6692 21.87 82.226Z" fill="white"/>
<path d="M14.3508 73.244C14.8632 74.0348 15.0144 74.8736 14.802 75.7616C14.5908 76.6496 14.0784 77.3564 13.266 77.8832C12.4704 78.3992 11.6184 78.5744 10.7124 78.4088C9.8064 78.2432 9.0948 77.762 8.5776 76.9664C8.2812 76.5104 8.106 76.0712 8.052 75.6512C7.998 75.23 8.0148 74.7572 8.1036 74.2328L8.5572 74.3228C8.376 75.2396 8.508 76.0436 8.9556 76.7324C9.3888 77.4008 9.9912 77.804 10.7628 77.9408C11.5344 78.0776 12.2748 77.9156 12.9864 77.4548C13.692 76.9964 14.1396 76.3844 14.328 75.6176C14.5164 74.8508 14.3952 74.1356 13.9656 73.472C13.7148 73.0844 13.4208 72.7892 13.0848 72.5852C12.7488 72.3812 12.3384 72.2252 11.8536 72.1172L11.9436 71.6636C12.4716 71.7812 12.93 71.9588 13.3188 72.1964C13.7076 72.4328 14.0508 72.7832 14.3508 73.244Z" fill="white"/>
<path d="M10.0128 64.2168C10.3296 65.1036 10.2828 65.9556 9.87117 66.7704C9.46077 67.5852 8.79957 68.1552 7.88757 68.4804C6.99357 68.7996 6.12477 68.7732 5.28117 68.4036C4.43757 68.0328 3.85557 67.4016 3.53637 66.5076C3.35397 65.9952 3.28437 65.5284 3.32877 65.106C3.37317 64.6836 3.49917 64.2276 3.70677 63.7368L4.12797 63.9288C3.74037 64.7796 3.68397 65.592 3.95997 66.366C4.22757 67.116 4.72077 67.6476 5.43957 67.9584C6.15837 68.2692 6.91677 68.2824 7.71477 67.998C8.50677 67.7148 9.08277 67.2228 9.44397 66.5196C9.80397 65.8164 9.85197 65.0928 9.58558 64.3488C9.43078 63.9144 9.21357 63.558 8.93278 63.282C8.65317 63.006 8.28957 62.76 7.84317 62.5428L8.03518 62.1216C8.52238 62.3568 8.92677 62.6352 9.24957 62.9568C9.57357 63.2784 9.82797 63.6984 10.0128 64.2168Z" fill="white"/>
<path d="M8.06998 57.2456L1.46878 57.9656L1.41478 57.4748L5.75278 57.002L0.956379 53.2688L0.883179 52.5992L4.11238 55.1672L7.47238 51.7568L7.54198 52.3976L4.49998 55.478L6.33838 56.9384L8.01718 56.756L8.06998 57.2456Z" fill="white"/>
<path d="M7.56481 47.184L0.976807 46.3464L1.03921 45.8568L6.92161 46.6044L1.58401 41.5752L1.64521 41.0952L8.23321 41.9328L8.17081 42.4224L2.28841 41.6748L7.62721 46.6956L7.56481 47.184Z" fill="white"/>
<path d="M3.77041 30.9345C3.87841 31.2273 3.87241 31.5261 3.75361 31.8333C3.63481 32.1405 3.43801 32.3661 3.16201 32.5101C2.88601 32.6541 2.59081 32.6961 2.27521 32.6349L2.33521 32.2413C2.80921 32.2953 3.13201 32.1021 3.30241 31.6593C3.47401 31.2165 3.36601 30.8565 2.97841 30.5781L3.19801 30.2457C3.47281 30.4113 3.66361 30.6417 3.77041 30.9345ZM9.50281 36.9033L3.30841 34.5093L3.48601 34.0485L9.01681 36.1869L5.04241 30.0225L5.21641 29.5713L11.4108 31.9653L11.2332 32.4249L5.70241 30.2865L9.68041 36.4413L9.50281 36.9033Z" fill="white"/>
<path d="M17.7168 22.0353L12.9084 17.4549L13.2492 17.0973L17.5428 21.1869L16.2264 13.9725L16.56 13.6221L21.3684 18.2013L21.0288 18.5589L16.7352 14.4693L18.0588 21.6777L17.7168 22.0353Z" fill="white"/>
<path d="M25.3728 14.8978L21.7872 9.30816L22.2024 9.04176L23.862 11.629L27.4392 9.33456L25.7796 6.74736L26.1948 6.48096L29.7816 12.0706L29.3664 12.337L27.6864 9.71856L24.1092 12.0142L25.7892 14.6326L25.3728 14.8978Z" fill="white"/>
<path d="M37.2876 8.95922C36.3972 9.26762 35.5464 9.21242 34.7352 8.79362C33.924 8.37482 33.3612 7.70882 33.0444 6.79442C32.7336 5.89802 32.7684 5.02922 33.1464 4.18922C33.5244 3.34923 34.1616 2.77323 35.0592 2.46363C35.5728 2.28603 36.0408 2.22123 36.462 2.26923C36.8832 2.31723 37.338 2.44803 37.8276 2.66043L37.632 3.07923C36.7848 2.68323 35.9736 2.61962 35.196 2.88842C34.4424 3.14882 33.9072 3.63722 33.5904 4.35362C33.2724 5.06882 33.252 5.82722 33.5292 6.62882C33.804 7.42322 34.2912 8.00402 34.9908 8.37122C35.6904 8.73842 36.4128 8.79242 37.1604 8.53322C37.5972 8.38202 37.9548 8.16842 38.2332 7.89122C38.5116 7.61402 38.7624 7.25282 38.9832 6.80882L39.402 7.00562C39.162 7.49042 38.8788 7.89242 38.5548 8.21282C38.2296 8.52962 37.8084 8.77922 37.2876 8.95922Z" fill="white"/>
<path d="M46.1328 6.90098L45.48 0.749777L43.1784 0.994578L43.1304 0.542177L48.2243 0.000976562L48.2723 0.453377L45.9708 0.698177L46.6235 6.84938L46.1328 6.90098Z" fill="white"/>
<path d="M53.622 6.62378L54.4128 0.0297852L54.9024 0.0885849L54.1968 5.97579L59.1888 0.603385L59.6688 0.660984L58.878 7.25498L58.3884 7.19619L59.0952 1.30898L54.1128 6.68259L53.622 6.62378Z" fill="white"/>
<path d="M65.6172 9.14137L67.7292 3.32737L65.5536 2.53777L65.7096 2.10938L70.5252 3.85777L70.3692 4.28617L68.1936 3.49657L66.0828 9.31057L65.6172 9.14137Z" fill="white"/>
<path d="M73.434 12.9503C73.116 12.7427 72.8616 12.4847 72.6696 12.1787L73.062 11.9255C73.2096 12.1739 73.4184 12.3851 73.6884 12.5627C74.202 12.8987 74.8308 12.8495 75.576 12.4139L75.876 6.47754L76.3608 6.79434L76.0632 12.1199L80.4972 9.49914L80.9496 9.79554L75.8448 12.7823C74.904 13.3295 74.1 13.3859 73.434 12.9503Z" fill="white"/>
<path d="M82.2839 19.8983L86.7563 15.6251L85.1567 13.9511L85.4855 13.6367L89.0243 17.3411L88.6955 17.6555L87.0959 15.9815L82.6235 20.2547L82.2839 19.8983Z" fill="white"/>
<path d="M91.2036 34.1518L91.8936 33.883L91.7796 33.5914C91.4364 32.713 91.4184 31.921 91.7232 31.2154C92.028 30.5086 92.5572 30.0094 93.312 29.7142C94.0668 29.4202 94.7964 29.4286 95.502 29.7406C96.2076 30.0526 96.732 30.6478 97.074 31.525L97.188 31.8166L97.8156 31.5718L97.9944 32.0314L97.3668 32.2762L97.4808 32.5678C97.8228 33.4462 97.8408 34.2382 97.5324 34.9462C97.224 35.653 96.6936 36.1546 95.94 36.4486C95.1852 36.7426 94.458 36.733 93.7548 36.4198C93.0516 36.1066 92.5296 35.5114 92.1864 34.633L92.0724 34.3414L91.3836 34.6102L91.2036 34.1518ZM92.1936 33.4294L92.3076 33.721L96.7704 31.9798L96.6564 31.6882C96.3528 30.9442 95.916 30.4438 95.3472 30.187C94.7784 29.9302 94.1616 29.9314 93.4956 30.1918C92.8356 30.4486 92.3832 30.865 92.1384 31.4386C91.896 32.0122 91.914 32.6758 92.1936 33.4294ZM92.4876 34.1806L92.6016 34.4722C92.9052 35.2162 93.342 35.7166 93.9108 35.9734C94.4796 36.2302 95.094 36.2302 95.754 35.9722C96.42 35.713 96.8748 35.2954 97.1196 34.7218C97.3644 34.1482 97.3464 33.4846 97.0656 32.731L96.9516 32.4394L92.4876 34.1806Z" fill="white"/>
<path d="M93.8531 42.2158L100.446 41.4214L100.505 41.911L94.6176 42.6202L101.021 46.1962L101.078 46.6762L94.4856 47.4706L94.4268 46.981L100.314 46.2718L93.9119 42.7054L93.8531 42.2158Z" fill="white"/>
<path d="M94.2696 54.4712L100.421 55.1204L100.664 52.8188L101.117 52.8669L100.579 57.962L100.127 57.914L100.37 55.6125L94.2192 54.9632L94.2696 54.4712Z" fill="white"/>
<path d="M92.9604 61.8477L99.2352 64.022L99.0744 64.4876L96.1704 63.482L94.7796 67.4984L97.6836 68.504L97.5216 68.9696L91.2468 66.7952L91.4088 66.3296L94.3488 67.3484L95.7396 63.332L92.7996 62.3133L92.9604 61.8477Z" fill="white"/>
<path d="M88.9463 71.4551L94.5575 75.0059L92.0315 78.9983L91.6463 78.7547L93.9083 75.1787L91.7039 73.7843L89.6699 76.9991L89.2847 76.7555L91.3199 73.5407L89.0675 72.1151L86.7803 75.7307L86.3951 75.4871L88.9463 71.4551Z" fill="white"/>
<path d="M81.2748 81.1487C81.942 80.4839 82.7316 80.1623 83.6436 80.1863C84.5556 80.2103 85.3536 80.5643 86.0376 81.2495C86.7072 81.9215 87.0552 82.7183 87.0804 83.6387C87.1056 84.5603 86.7828 85.3559 86.1108 86.0255C85.7256 86.4095 85.3332 86.6723 84.9324 86.8127C84.5316 86.9531 84.066 87.0335 83.5332 87.0551L83.5272 86.5919C84.462 86.5799 85.2204 86.2835 85.8024 85.7027C86.3664 85.1399 86.6364 84.4667 86.61 83.6843C86.5848 82.9019 86.2716 82.2107 85.674 81.6107C85.08 81.0143 84.3888 80.7047 83.5992 80.6783C82.8096 80.6531 82.1352 80.9183 81.576 81.4775C81.2484 81.8039 81.0204 82.1519 80.8896 82.5227C80.76 82.8935 80.6916 83.3279 80.6868 83.8235L80.2236 83.8295C80.2284 83.2883 80.3076 82.8035 80.4612 82.3739C80.6148 81.9467 80.8848 81.5375 81.2748 81.1487Z" fill="white"/>
<path d="M76.2444 85.6558L77.0412 92.9818L76.6344 93.2266L70.5372 89.089L71.0004 88.8106L72.6828 89.9686L76.0404 87.949L75.8052 85.9198L76.2444 85.6558ZM76.0908 88.4386L73.0908 90.2422L76.5672 92.635L76.0908 88.4386Z" fill="white"/>
</svg>
